<?xml version="1.0" standalone="no"?><!DOCTYPE svg PUBLIC "-//W3C//DTD SVG 1.1//EN" "http://www.w3.org/Graphics/SVG/1.1/DTD/svg11.dtd"><svg t="1631689513399" class="icon" viewBox="0 0 1024 1024" version="1.1" xmlns="http://www.w3.org/2000/svg" p-id="11219" width="64" height="64" xmlns:xlink="http://www.w3.org/1999/xlink"><defs><style type="text/css"></style></defs><path d="M143.274667 306.304a8.533333 8.533333 0 0 1 0-15.274667l349.653333-174.805333a42.666667 42.666667 0 0 1 38.144 0l349.653333 174.805333a8.533333 8.533333 0 0 1 0 15.274667l-349.653333 174.805333a42.666667 42.666667 0 0 1-38.144 0L143.274667 306.346667z m349.653333 103.253333a42.666667 42.666667 0 0 0 38.144 0L752.896 298.666667l-221.824-110.933334a42.666667 42.666667 0 0 0-38.144 0L271.104 298.666667l221.824 110.933333z" fill="#333333" p-id="11220"></path><path d="M142.08 476.373333a32 32 0 0 1 42.88-14.336L512 625.536l327.04-163.498667a32 32 0 1 1 28.586667 57.258667l-331.776 165.888a53.333333 53.333333 0 0 1-47.701334 0l-331.776-165.888a32 32 0 0 1-14.336-42.922667z" fill="#333333" p-id="11221"></path><path d="M142.08 668.373333a32 32 0 0 1 42.88-14.336L512 817.536l327.04-163.498667a32 32 0 1 1 28.586667 57.258667l-331.776 165.888a53.333333 53.333333 0 0 1-47.701334 0l-331.776-165.888a32 32 0 0 1-14.336-42.922667z" fill="#333333" p-id="11222"></path></svg>