<?xml version="1.0" standalone="no"?><!DOCTYPE svg PUBLIC "-//W3C//DTD SVG 1.1//EN" "http://www.w3.org/Graphics/SVG/1.1/DTD/svg11.dtd"><svg t="1631686386626" class="icon" viewBox="0 0 1024 1024" version="1.1" xmlns="http://www.w3.org/2000/svg" p-id="3804" width="64" height="64" xmlns:xlink="http://www.w3.org/1999/xlink"><defs><style type="text/css"></style></defs><path d="M853.333333 234.666667a21.333333 21.333333 0 0 1 21.333334 21.333333v512a21.333333 21.333333 0 0 1-21.333334 21.333333H170.666667a21.333333 21.333333 0 0 1-21.333334-21.333333V256a21.333333 21.333333 0 0 1 21.333334-21.333333h682.666666zM170.666667 170.666667a85.333333 85.333333 0 0 0-85.333334 85.333333v512a85.333333 85.333333 0 0 0 85.333334 85.333333h682.666666a85.333333 85.333333 0 0 0 85.333334-85.333333V256a85.333333 85.333333 0 0 0-85.333334-85.333333H170.666667z" fill="#e6e6e6" p-id="3805"></path><path d="M277.333333 362.666667h128v128h-128v-128zM256 298.666667a42.666667 42.666667 0 0 0-42.666667 42.666666v170.666667a42.666667 42.666667 0 0 0 42.666667 42.666667h170.666667a42.666667 42.666667 0 0 0 42.666666-42.666667V341.333333a42.666667 42.666667 0 0 0-42.666666-42.666666H256zM554.666667 416a32 32 0 0 1 32-32h192a32 32 0 0 1 0 64h-192a32 32 0 0 1-32-32zM213.333333 672a32 32 0 0 1 32-32h533.333334a32 32 0 0 1 0 64H245.333333a32 32 0 0 1-32-32z" fill="#e6e6e6" p-id="3806"></path></svg>