<?xml version="1.0" standalone="no"?><!DOCTYPE svg PUBLIC "-//W3C//DTD SVG 1.1//EN" "http://www.w3.org/Graphics/SVG/1.1/DTD/svg11.dtd"><svg t="1631686410082" class="icon" viewBox="0 0 1024 1024" version="1.1" xmlns="http://www.w3.org/2000/svg" p-id="4435" width="64" height="64" xmlns:xlink="http://www.w3.org/1999/xlink"><defs><style type="text/css"></style></defs><path d="M548.053333 510.037333l17.621334-40.064a186.538667 186.538667 0 0 0-196.693334-259.712l51.456 51.456A106.666667 106.666667 0 1 1 269.568 412.586667L212.608 355.626667a186.538667 186.538667 0 0 0 265.301333 206.336l41.216-20.48 203.008 202.965333a21.333333 21.333333 0 1 0 30.165334-30.165333l-204.245334-204.245334z m-386.688-205.653333c7.936-20.48 18.645333-40.149333 32.170667-58.368l121.301333 121.301333a42.666667 42.666667 0 0 0 60.330667-60.330666L255.146667 187.008a250.453333 250.453333 0 0 1 316.8 30.805333 250.538667 250.538667 0 0 1 52.266666 277.930667l173.269334 173.269333a85.333333 85.333333 0 0 1-120.661334 120.661334l-170.453333-170.410667a250.538667 250.538667 0 0 1-345.045333-314.88z" fill="#e6e6e6" p-id="4436"></path></svg>