<?xml version="1.0" standalone="no"?><!DOCTYPE svg PUBLIC "-//W3C//DTD SVG 1.1//EN" "http://www.w3.org/Graphics/SVG/1.1/DTD/svg11.dtd"><svg t="1631692824195" class="icon" viewBox="0 0 1024 1024" version="1.1" xmlns="http://www.w3.org/2000/svg" p-id="2428" width="64" height="64" xmlns:xlink="http://www.w3.org/1999/xlink"><defs><style type="text/css"></style></defs><path d="M509.184 448a106.666667 106.666667 0 1 1 0-213.333333 106.666667 106.666667 0 0 1 0 213.333333z m0 64a170.666667 170.666667 0 1 0 0-341.333333 170.666667 170.666667 0 0 0 0 341.333333zM261.248 789.333333h495.872a256.128 256.128 0 0 0-495.872 0z m-69.248 21.418667a320.085333 320.085333 0 0 1 634.368 0c3.114667 23.381333-16.256 42.581333-39.850667 42.581333h-554.666666c-23.552 0-42.965333-19.2-39.850667-42.581333z" fill="#333333" p-id="2429"></path><path d="M509.184 650.666667a32 32 0 0 1 32 32v42.666666a32 32 0 0 1-64 0v-42.666666a32 32 0 0 1 32-32z" fill="#333333" p-id="2430"></path></svg>