<?xml version="1.0" standalone="no"?><!DOCTYPE svg PUBLIC "-//W3C//DTD SVG 1.1//EN" "http://www.w3.org/Graphics/SVG/1.1/DTD/svg11.dtd"><svg t="1631686399469" class="icon" viewBox="0 0 1024 1024" version="1.1" xmlns="http://www.w3.org/2000/svg" p-id="4071" width="64" height="64" xmlns:xlink="http://www.w3.org/1999/xlink"><defs><style type="text/css"></style></defs><path d="M512 448a106.666667 106.666667 0 1 1 0-213.333333 106.666667 106.666667 0 0 1 0 213.333333z m0 64a170.666667 170.666667 0 1 0 0-341.333333 170.666667 170.666667 0 0 0 0 341.333333z" fill="#e6e6e6" p-id="4072"></path><path d="M746.666667 768a21.333333 21.333333 0 0 1-21.333334 21.333333H298.666667a21.333333 21.333333 0 0 1-21.333334-21.333333v-181.589333a21.333333 21.333333 0 0 1 27.861334-20.309334l161.109333 51.754667a149.333333 149.333333 0 0 0 91.392 0l161.109333-51.754667a21.333333 21.333333 0 0 1 27.861334 20.309334V768z m-421.888-262.826667A85.333333 85.333333 0 0 0 213.333333 586.410667V768a85.333333 85.333333 0 0 0 85.333334 85.333333h426.666666a85.333333 85.333333 0 0 0 85.333334-85.333333v-181.589333a85.333333 85.333333 0 0 0-111.445334-81.237334l-161.109333 51.754667a85.333333 85.333333 0 0 1-52.224 0L324.778667 505.173333z" fill="#e6e6e6" p-id="4073"></path><path d="M565.333333 661.333333a32 32 0 0 1 32-32h85.333334a32 32 0 0 1 0 64h-85.333334a32 32 0 0 1-32-32z" fill="#e6e6e6" p-id="4074"></path></svg>